<?xml version="1.0" standalone="no"?>
<!DOCTYPE svg PUBLIC "-//W3C//DTD SVG 20010904//EN"
 "http://www.w3.org/TR/2001/REC-SVG-20010904/DTD/svg10.dtd">
<svg version="1.0" xmlns="http://www.w3.org/2000/svg"
 width="1080.000000pt" height="1080.000000pt" viewBox="0 0 1080.000000 1080.000000"
 preserveAspectRatio="xMidYMid meet">

<g transform="translate(0.000000,1080.000000) scale(0.100000,-0.100000)"
fill="#000000" stroke="none">
<path d="M8080 8342 c-17 -14 -25 -39 -38 -118 l-17 -101 -135 0 c-145 -1
-282 -20 -383 -54 -138 -46 -290 -125 -394 -204 -119 -90 -280 -271 -336 -377
-25 -47 -25 -49 -11 -110 8 -35 20 -68 27 -75 15 -14 684 -126 712 -119 11 3
33 29 50 61 l30 56 15 -59 c8 -33 21 -66 28 -74 12 -15 218 -55 229 -44 3 3 3
11 0 19 -3 9 -38 19 -101 27 -53 8 -100 18 -105 24 -4 6 -11 23 -15 39 -5 21
-3 27 9 27 9 0 150 -22 313 -49 289 -49 302 -50 497 -49 l200 0 -160 27 -160
27 -1 179 c-1 145 -5 200 -23 285 -27 127 -68 234 -122 313 -22 33 -37 62 -34
65 2 3 51 -10 107 -28 389 -122 685 -421 817 -823 20 -61 42 -112 49 -115 20
-6 14 34 -22 143 -81 240 -217 441 -402 594 -144 120 -308 206 -467 248 -76
20 -73 13 -52 131 15 90 10 123 -24 141 -29 16 -56 13 -81 -7z m-82 -258 l31
-6 -59 -44 c-150 -110 -288 -343 -354 -594 -24 -93 -25 -95 -53 -92 -42 5
-747 122 -750 125 -8 9 101 152 171 225 197 206 459 340 739 381 75 10 233 13
275 5z m137 -71 c53 -70 102 -178 131 -290 21 -79 27 -131 31 -264 3 -92 3
-182 -1 -201 l-6 -35 -331 55 -331 55 7 36 c24 127 115 344 195 461 67 98 214
230 256 230 7 0 29 -21 49 -47z"/>
<path d="M8020 7104 c0 -14 7 -15 38 -10 20 3 51 6 67 7 27 1 26 2 -10 10 -66
13 -95 11 -95 -7z"/>
<path d="M8245 7110 c-3 -5 3 -10 14 -10 11 0 23 5 26 10 3 6 -3 10 -14 10
-11 0 -23 -4 -26 -10z"/>
<path d="M8798 7112 c-191 -4 -136 -21 70 -20 103 0 176 4 162 8 -42 12 -109
15 -232 12z"/>
<path d="M8338 7103 c6 -2 18 -2 25 0 6 3 1 5 -13 5 -14 0 -19 -2 -12 -5z"/>
<path d="M8120 7081 c0 -9 59 -21 105 -21 21 1 26 3 15 9 -21 12 -120 22 -120
12z"/>
<path d="M9045 7056 l-90 -12 59 -8 c87 -12 89 -13 69 -47 -10 -16 -26 -29
-36 -29 -10 0 -143 20 -295 44 -332 53 -402 62 -402 48 0 -6 8 -13 18 -16 50
-15 687 -116 703 -111 31 10 101 149 72 144 -5 -1 -48 -7 -98 -13z"/>
<path d="M7828 6923 c-10 -60 -42 -259 -72 -443 -30 -184 -57 -362 -60 -395
l-7 -60 24 70 c13 39 35 95 49 125 22 47 28 83 42 250 9 107 23 273 32 369 8
95 14 177 12 182 -2 5 -11 -39 -20 -98z"/>
<path d="M7682 5995 c0 -16 2 -22 5 -12 2 9 2 23 0 30 -3 6 -5 -1 -5 -18z"/>
<path d="M7652 5828 c-12 -73 -22 -136 -22 -140 0 -5 11 -8 25 -8 l25 0 0 140
c0 77 -1 140 -3 140 -1 0 -13 -60 -25 -132z"/>
<path d="M6990 5080 c-74 -27 -180 -99 -264 -179 -108 -104 -326 -419 -405
-586 -35 -72 -101 -260 -101 -285 0 -13 -41 -50 -163 -147 -102 -82 -259 -165
-357 -189 -156 -39 -293 23 -321 144 -7 30 -4 46 17 90 14 29 41 64 60 78 33
26 36 26 93 14 92 -19 255 -9 311 19 90 46 150 123 165 208 9 57 -14 103 -67
133 -36 20 -49 22 -122 17 -283 -22 -694 -213 -861 -402 -33 -37 -82 -90 -110
-117 -57 -56 -163 -130 -179 -125 -6 2 -28 44 -48 93 -22 52 -50 100 -68 116
-55 51 -130 57 -245 21 -74 -23 -133 -55 -286 -154 -147 -95 -266 -159 -296
-159 -22 0 -43 18 -43 38 0 25 105 125 200 187 52 35 177 105 278 155 124 62
188 99 200 118 24 36 22 104 -3 132 -19 21 -26 22 -105 17 -106 -7 -241 -42
-409 -108 -316 -122 -567 -285 -661 -427 -37 -57 -199 -207 -210 -195 -5 4
-18 44 -29 88 -51 201 -112 335 -183 401 l-50 46 -63 -4 c-89 -5 -169 -49
-290 -159 -140 -125 -175 -142 -175 -80 0 49 40 148 112 273 65 114 102 170
251 385 112 159 134 248 78 304 -97 96 -342 -54 -559 -343 -121 -161 -224
-319 -268 -413 -147 -310 -204 -708 -124 -866 22 -42 71 -87 103 -93 12 -3 34
-7 48 -10 74 -16 229 46 354 139 41 31 134 119 207 196 l132 140 33 -127 c53
-204 117 -295 222 -314 95 -17 244 43 359 146 l63 56 49 -49 c60 -60 122 -92
199 -103 134 -19 283 46 616 269 127 85 151 98 156 84 51 -140 65 -168 104
-211 l43 -47 74 0 c71 0 82 3 179 52 57 29 136 77 176 107 l72 54 21 -33 c28
-45 104 -111 160 -140 83 -42 158 -58 270 -58 251 -1 544 109 789 295 l66 50
8 -64 c18 -142 123 -228 250 -204 40 7 166 89 273 177 40 32 75 59 78 59 4 0
40 -33 80 -72 123 -121 236 -177 358 -178 163 0 385 137 654 405 92 92 139
148 161 190 28 53 147 186 156 174 2 -2 29 -34 60 -71 70 -84 87 -116 87 -168
0 -49 -17 -52 -90 -15 -27 14 -65 25 -83 25 -72 0 -231 -116 -277 -202 -30
-57 -23 -86 33 -142 55 -55 133 -92 232 -113 171 -34 441 25 639 140 152 88
471 386 516 481 53 113 34 183 -52 193 -70 8 -113 -18 -293 -178 -147 -129
-245 -208 -245 -195 0 3 14 26 32 51 25 35 33 58 36 104 6 88 -34 156 -162
277 -95 89 -99 94 -88 119 26 56 7 124 -44 164 -35 28 -124 28 -196 1 -111
-42 -230 -155 -245 -233 -9 -50 -17 -60 -100 -122 -129 -98 -190 -153 -207
-189 -25 -52 -253 -227 -346 -266 -29 -12 -37 -11 -83 12 -60 29 -167 113
-167 131 0 7 52 64 116 127 130 129 196 214 230 298 31 75 30 95 -5 134 l-29
33 -109 0 c-97 0 -114 -3 -163 -27 -88 -43 -135 -91 -273 -277 -157 -211 -211
-271 -244 -271 -24 0 -25 2 -18 38 11 62 74 210 133 311 30 53 126 212 213
353 87 141 167 275 178 297 66 129 -38 208 -199 151z m132 -10 c71 -20 85 -58
48 -130 -11 -22 -97 -164 -191 -317 -196 -317 -267 -446 -309 -562 -35 -96
-38 -136 -11 -151 11 -5 25 -10 31 -10 26 0 122 108 255 285 148 199 179 229
272 272 76 35 192 43 243 16 30 -16 35 -23 38 -60 6 -80 -55 -171 -240 -359
l-139 -141 63 -57 c87 -77 169 -120 216 -112 39 6 134 66 258 162 45 35 84 60
88 57 3 -4 6 -17 6 -30 0 -34 26 -80 50 -88 41 -13 128 19 189 70 17 15 31 24
31 20 0 -35 -215 -252 -365 -370 -163 -128 -319 -204 -416 -205 -114 0 -234
63 -367 193 -54 54 -76 69 -86 62 -7 -6 -58 -45 -112 -88 -196 -154 -258 -179
-348 -137 -55 26 -90 73 -105 140 -22 94 -19 102 73 194 102 102 198 221 232
288 23 46 24 53 12 91 -9 29 -22 46 -41 55 -37 18 -88 0 -178 -63 -35 -24 -65
-42 -67 -40 -9 9 74 220 125 316 63 118 214 342 303 448 113 134 268 235 400
260 3 0 22 -4 42 -9z m-4497 -245 c52 -52 18 -144 -131 -350 -187 -258 -319
-510 -312 -598 6 -85 58 -73 185 45 141 130 215 172 310 173 47 0 56 -4 91
-38 49 -48 100 -152 140 -282 17 -55 39 -127 49 -159 10 -33 23 -61 29 -63 6
-2 44 25 85 60 l74 63 0 -90 c1 -74 6 -102 27 -154 l26 -62 -49 -44 c-110 -99
-225 -156 -314 -156 -122 0 -194 87 -244 295 -27 111 -40 145 -56 145 -6 0
-71 -63 -144 -139 -149 -159 -229 -223 -350 -284 -79 -39 -90 -42 -166 -42
-73 0 -85 3 -117 27 -59 45 -73 97 -73 273 0 171 14 253 75 436 68 205 167
377 354 618 205 264 430 408 511 326z m5862 -265 c47 -28 62 -86 38 -140 l-18
-40 44 -37 c155 -131 229 -231 229 -311 0 -47 -33 -110 -92 -176 -27 -30 -44
-57 -40 -60 11 -6 105 49 177 103 28 21 104 87 170 146 153 137 171 150 222
165 51 16 100 0 109 -35 7 -29 -12 -100 -39 -145 -28 -47 -204 -227 -297 -304
-191 -158 -324 -226 -519 -266 -178 -36 -338 -24 -441 34 -51 28 -115 91 -124
121 -15 50 101 171 211 222 58 27 79 25 155 -13 36 -18 53 -22 71 -15 68 26
39 128 -72 256 -33 39 -61 74 -61 80 0 5 -26 -16 -58 -48 l-57 -57 3 45 c5 59
-28 95 -86 95 -42 0 -79 -21 -164 -92 -51 -43 -67 -44 -20 -2 15 14 78 64 140
111 98 74 112 89 112 115 0 110 196 265 340 267 19 1 49 -8 67 -19z m-2560
-191 c53 -20 73 -48 73 -101 0 -84 -54 -159 -150 -209 -41 -22 -57 -24 -170
-23 -69 0 -136 5 -150 11 -48 20 -118 -33 -165 -126 -38 -76 14 -183 114 -233
155 -79 403 8 665 235 l59 51 -6 -44 c-4 -25 -10 -100 -13 -167 l-7 -121 -81
-60 c-250 -183 -520 -282 -771 -282 -175 0 -321 66 -399 179 l-28 40 123 123
c170 171 243 273 269 379 12 50 2 97 -22 113 -23 14 -85 -7 -149 -50 -28 -19
-46 -28 -39 -19 40 48 338 201 485 248 90 30 254 65 302 66 17 1 44 -4 60 -10z
m-1569 -81 c20 -20 15 -95 -8 -118 -11 -11 -97 -58 -192 -106 -207 -103 -343
-191 -420 -272 -64 -66 -77 -111 -39 -132 53 -28 129 4 342 143 200 130 309
177 408 177 78 0 116 -25 147 -98 50 -115 69 -147 89 -150 18 -2 82 35 162 93
21 16 21 16 8 -22 -24 -71 -28 -145 -11 -213 12 -45 13 -66 6 -75 -23 -28
-163 -117 -245 -157 -104 -50 -184 -57 -232 -22 -35 25 -76 98 -104 184 -12
36 -25 69 -29 73 -4 5 -90 -46 -190 -112 -208 -138 -323 -203 -418 -237 -134
-47 -253 -23 -352 72 l-54 52 79 84 c168 175 285 368 285 467 0 93 -78 94
-204 4 -28 -20 -45 -29 -37 -19 45 54 290 189 490 270 245 100 481 152 519
114z m3703 -149 c17 -17 19 -28 14 -62 -10 -58 -22 -78 -78 -126 -74 -63 -132
-88 -194 -82 -14 1 -33 55 -33 96 0 28 11 40 90 104 122 97 160 111 201 70z
m-1551 -18 c22 -42 12 -86 -39 -157 -60 -85 -200 -244 -235 -267 l-26 -17 0
92 c1 51 7 124 14 162 15 78 31 96 149 169 69 42 120 49 137 18z m-1242 -59
c7 -90 -76 -218 -260 -403 l-122 -122 -13 29 c-17 40 -16 160 2 221 21 72 49
107 150 194 98 85 176 131 215 127 22 -3 25 -9 28 -46z m-208 -15 c0 -2 -10
-12 -22 -23 l-23 -19 19 23 c18 21 26 27 26 19z m-1500 -92 c46 -55 -95 -309
-278 -499 -35 -36 -65 -66 -67 -66 -2 0 -13 26 -26 58 -29 76 -30 190 -3 248
31 68 219 228 302 259 49 18 57 18 72 0z m-240 -78 c0 -2 -15 -16 -32 -33
l-33 -29 29 33 c28 30 36 37 36 29z"/>
</g>
</svg>
